<svg xmlns="http://www.w3.org/2000/svg" viewBox="0 0 750 412"><defs><style>.cls-1{fill:#fff;}</style></defs><g id="图层_2" data-name="图层 2"><g id="图层_1-2" data-name="图层 1"><path class="cls-1" d="M750,0H0V339.86l35.84,2.62c1,.07,2,.11,3,.11a39.52,39.52,0,0,0,25-8.78A59.94,59.94,0,0,1,145.81,340,39.31,39.31,0,0,0,172,352.45l45.71,3.34a51.91,51.91,0,0,1,33.37,15.29L281.66,402q4.5,4.54,9.32,8.56a6.34,6.34,0,0,0,4,1.47,5.81,5.81,0,0,0,3.06-.86,6.12,6.12,0,0,0,.79-9.93,118.92,118.92,0,1,1,152.26,0,6.12,6.12,0,0,0,.79,9.93A5.81,5.81,0,0,0,455,412a6.34,6.34,0,0,0,4-1.47q4.82-4,9.32-8.56l30.56-30.89a51.91,51.91,0,0,1,33.37-15.29L578,352.45A39.28,39.28,0,0,0,604.19,340a59.94,59.94,0,0,1,82.06-6.15,39.52,39.52,0,0,0,25,8.78c1,0,2,0,3-.11L750,339.86V0"/></g></g></svg>