<svg xmlns="http://www.w3.org/2000/svg" viewBox="0 0 38.68 38.72"><defs><style>.cls-1{fill:#2e334e;}</style></defs><g id="图层_2" data-name="图层 2"><g id="图层_1-2" data-name="图层 1"><path class="cls-1" d="M32.43,11,27.68,6.27a2.17,2.17,0,0,1,0-3.06L30.26.63a2.16,2.16,0,0,1,3.05,0l4.74,4.75a2.14,2.14,0,0,1,0,3.05L35.47,11A2.13,2.13,0,0,1,32.43,11Zm-2.79,5.82c.81-.82,1-1.93.45-2.48L24.32,8.57c-.55-.56-1.66-.36-2.48.45L.71,29.61A2.41,2.41,0,0,0,0,31.05v5.78a1.65,1.65,0,0,0,1.84,1.84l5.77,0A2.35,2.35,0,0,0,9.07,38Zm6.81,16.34H21.37a2.13,2.13,0,0,0-1.53.64c-.74.74-2,2-3,3a1.07,1.07,0,0,0,.77,1.82H36.43a2.21,2.21,0,0,0,2.2-2.2V35.35A2.19,2.19,0,0,0,36.45,33.17Z"/></g></g></svg>