<svg xmlns="http://www.w3.org/2000/svg" viewBox="0 0 32.48 32.47"><defs><style>.cls-1{fill:#99A7B5;}</style></defs><g id="图层_2" data-name="图层 2"><g id="图层_1-2" data-name="图层 1"><path class="cls-1" d="M31.35,12.07l-5.82,5.8a3.86,3.86,0,0,1-5.46,0l-1.64-1.64,4.92-4.91a1.55,1.55,0,1,0-2.19-2.19l-4.92,4.92L14.6,12.41a3.87,3.87,0,0,1,0-5.47l5.81-5.81a3.86,3.86,0,0,1,5.46,0l5.48,5.48A3.87,3.87,0,0,1,31.35,12.07ZM17.88,25.53l-5.81,5.81a3.86,3.86,0,0,1-5.46,0L1.13,25.87a3.87,3.87,0,0,1,0-5.47l5.81-5.8a3.87,3.87,0,0,1,5.47,0l1.64,1.63L9.13,21.15a1.55,1.55,0,0,0,2.19,2.19l4.92-4.92,1.64,1.64A3.87,3.87,0,0,1,17.88,25.53Z"/></g></g></svg>