<svg xmlns="http://www.w3.org/2000/svg" viewBox="0 0 21 23.99"><defs><style>.cls-1{fill:#99A7B5;}</style></defs><g id="图层_2" data-name="图层 2"><g id="图层_1-2" data-name="图层 1"><path class="cls-1" d="M19,4.44,12.54.57a3.94,3.94,0,0,0-4.08,0L2,4.44A4.31,4.31,0,0,0,0,8.13v7.74a4.29,4.29,0,0,0,2,3.68l6.42,3.87a3.94,3.94,0,0,0,4.08,0L19,19.55a4.29,4.29,0,0,0,2-3.68V8.13A4.31,4.31,0,0,0,19,4.44ZM10,18.8a.68.68,0,0,1-1,.69l-4.78-2.7A1.46,1.46,0,0,1,3.5,15.5V10.24a.68.68,0,0,1,1-.68l4.78,2.7A1.46,1.46,0,0,1,10,13.55Zm.53-7.64A1.49,1.49,0,0,1,9.76,11L4.89,8.34a.58.58,0,0,1-.31-.55.56.56,0,0,1,.31-.54L9.76,4.61a1.57,1.57,0,0,1,1.46,0l4.87,2.65a.53.53,0,0,1,.31.54.56.56,0,0,1-.31.54L11.22,11A1.49,1.49,0,0,1,10.49,11.16Zm7,4.32a1.48,1.48,0,0,1-.71,1.29L12,19.48a.68.68,0,0,1-1-.68V13.56a1.46,1.46,0,0,1,.71-1.29l4.78-2.71a.69.69,0,0,1,1,.69Z"/></g></g></svg>