<svg xmlns="http://www.w3.org/2000/svg" viewBox="0 0 39 40.5"><defs><style>.cls-1,.cls-2{fill:#2e334e;}.cls-1{fill-rule:evenodd;}</style></defs><g id="图层_2" data-name="图层 2"><g id="图层_1-2" data-name="图层 1"><path class="cls-1" d="M41.14,38.51l-7.09-7a3,3,0,0,0-4.18,0,2.89,2.89,0,0,0,0,4.13l7.09,7a3,3,0,0,0,4.18,0A2.9,2.9,0,0,0,41.14,38.51Z" transform="translate(-3 -3)"/><path class="cls-2" d="M21.72,9A12.61,12.61,0,0,1,34.44,21.49,12.72,12.72,0,0,1,9,21.49,12.62,12.62,0,0,1,21.72,9m0-6A18.61,18.61,0,0,0,3,21.49,18.61,18.61,0,0,0,21.72,40a18.61,18.61,0,0,0,18.72-18.5A18.61,18.61,0,0,0,21.72,3Z" transform="translate(-3 -3)"/></g></g></svg>