<svg xmlns="http://www.w3.org/2000/svg" viewBox="0 0 42.98 41.97"><defs><style>.cls-1{fill:#2e334e;}</style></defs><g id="图层_2" data-name="图层 2"><g id="图层_1-2" data-name="图层 1"><path class="cls-1" d="M35.11,15.8a7.82,7.82,0,0,1-6-2.82l-9.81,4.71a10.11,10.11,0,0,1-.06,7.86L27,29.6A8,8,0,0,1,38.11,27a8.13,8.13,0,0,1,2.56,11.15,8,8,0,0,1-11.08,2.58A8.12,8.12,0,0,1,26,32.36L17.68,28A10,10,0,0,1,3.57,29.26a10.13,10.13,0,0,1-1.22-14.2,10,10,0,0,1,14.11-1.22,10.36,10.36,0,0,1,1.35,1.38l9.9-4.75a7.92,7.92,0,0,1,4.86-10,7.89,7.89,0,0,1,5.11,14.94A7.75,7.75,0,0,1,35.11,15.8Z"/></g></g></svg>