<svg width="23" height="23" viewBox="0 0 23 23" fill="none" xmlns="http://www.w3.org/2000/svg">
<path d="M8.25514 9.6357L15.2364 6.11708M15.0644 16.8832L8.14672 13.1587M22.3015 4.46822C22.3015 6.5252 20.634 8.19272 18.577 8.19272C16.52 8.19272 14.8525 6.5252 14.8525 4.46822C14.8525 2.41123 16.52 0.743713 18.577 0.743713C20.634 0.743713 22.3015 2.41123 22.3015 4.46822ZM8.64499 11.2965C8.64499 13.3535 6.97748 15.021 4.92049 15.021C2.8635 15.021 1.19598 13.3535 1.19598 11.2965C1.19598 9.23949 2.8635 7.57197 4.92049 7.57197C6.97748 7.57197 8.64499 9.23949 8.64499 11.2965ZM22.3015 18.1247C22.3015 20.1817 20.634 21.8492 18.577 21.8492C16.52 21.8492 14.8525 20.1817 14.8525 18.1247C14.8525 16.0677 16.52 14.4002 18.577 14.4002C20.634 14.4002 22.3015 16.0677 22.3015 18.1247Z" stroke="#70ACD3"/>
</svg>
