<svg xmlns="http://www.w3.org/2000/svg" viewBox="0 0 37.18 38.39"><defs><style>.cls-1{fill:#2e334e;}</style></defs><g id="图层_2" data-name="图层 2"><g id="图层_2-2" data-name="图层 2"><path class="cls-1" d="M34.61,15.38H24.39C28.35.75,21.66,0,21.66,0c-2.83,0-2.25,2.24-2.46,2.62,0,7.15-7.6,12.76-7.6,12.76V35.67c0,2,2.73,2.72,3.8,2.72H30.76c1.44,0,2.62-3.79,2.62-3.79,3.8-12.92,3.8-16.77,3.8-16.77a2.31,2.31,0,0,0-2.57-2.45Zm-27.21,0H1.28A1.24,1.24,0,0,0,0,16.62L1.26,37.09a1.28,1.28,0,0,0,1.31,1.3h5.3C9,38.39,9,37.53,9,37.53V16.93A1.51,1.51,0,0,0,7.4,15.38Z"/></g></g></svg>