<svg xmlns="http://www.w3.org/2000/svg" viewBox="0 0 26.02 28"><defs><style>.cls-1{fill:#2e334e;}</style></defs><g id="图层_2" data-name="图层 2"><g id="图层_2-2" data-name="图层 2"><path class="cls-1" d="M5.83,8.57a5.72,5.72,0,0,0,.22.95v0a6.24,6.24,0,0,0,.36.88l.09.2a8.52,8.52,0,0,0,.48.83H7a5.48,5.48,0,0,0,.6.75l.12.14a7.52,7.52,0,0,0,1.51,1.23l.14.08a7.56,7.56,0,0,0,.9.45,7.38,7.38,0,0,0,5.59,0,7.62,7.62,0,0,0,.9-.46l.13-.07a7.57,7.57,0,0,0,1.52-1.24l.12-.13a7.58,7.58,0,0,0,.6-.75h0a7.54,7.54,0,0,0,.49-.83l.09-.19a8.66,8.66,0,0,0,.35-.89v0a7.3,7.3,0,0,0,.22-.95,2,2,0,0,1,0-.24,8.12,8.12,0,0,0,.07-1,7,7,0,0,0,0-.79,2,2,0,0,0,0-.24,4.89,4.89,0,0,0-.09-.53l-.06-.26c0-.16-.09-.32-.14-.49l-.09-.24c-.06-.16-.13-.32-.19-.47s-.07-.15-.11-.22l-.25-.47c0-.06-.07-.12-.11-.17A4.07,4.07,0,0,0,18.94,3l-.09-.13-.42-.49-.07-.08a6.51,6.51,0,0,0-.54-.51,7.34,7.34,0,0,0-9.51,0c-.19.16-.36.33-.54.51a.73.73,0,0,0-.09.09c-.15.16-.28.32-.42.48L7.17,3a5,5,0,0,0-.33.47l-.11.18c-.09.15-.17.31-.26.47a2.14,2.14,0,0,1-.1.22c-.07.15-.13.31-.19.47L6.09,5c0,.16-.1.32-.14.49l-.07.25c0,.18-.06.36-.08.54a2.23,2.23,0,0,0,0,.23,7,7,0,0,0,0,.79,8.42,8.42,0,0,0,.08,1Zm11.45,7.9H8.74A8.73,8.73,0,0,0,0,25.2v0A2.74,2.74,0,0,0,2.69,28H23.31A2.76,2.76,0,0,0,26,25.2,8.73,8.73,0,0,0,17.28,16.47Z"/></g></g></svg>